Coordinates
version=1
nRows=22
nColumns=24
inDegrees=yes

Units are S.I. units (second, meters, Newtons, ...)
Angles are in degrees.

endheader
time	pelvis_tilt	pelvis_list	pelvis_rotation	pelvis_tx	pelvis_ty	pelvis_tz	hip_flexion_r	hip_adduction_r	hip_rotation_r	knee_angle_r	ankle_angle_r	subtalar_angle_r	mtp_angle_r	hip_flexion_l	hip_adduction_l	hip_rotation_l	knee_angle_l	ankle_angle_l	subtalar_angle_l	mtp_angle_l	lumbar_extension	lumbar_bending	lumbar_rotation
      0.68616667	     -3.99717788	     -0.90879058	      4.24122994	     -0.43221921	      1.04572840	      0.30908790	     20.34544187	      1.55470361	     -3.30722562	    -30.14096927	     16.15038291	     -6.54101737	      2.42347744	     22.77510281	     -5.73403196	     -5.60012960	    -75.61895769	      4.47385729	      7.38049577	      3.82944018	     -6.61073337	      2.88244918	      1.77611544
      0.69033333	     -4.01028474	     -0.74500256	      4.20323107	     -0.42630595	      1.04722003	      0.30886950	     19.77553848	      1.40077026	     -3.26311538	    -29.70722851	     16.24888354	     -6.43338730	      2.43492792	     23.31868709	     -5.47231221	     -5.84908136	    -75.17165960	      4.83341690	      7.83723670	      3.84490181	     -6.57693882	      2.73855564	      1.82685783
      0.69450000	     -4.01974397	     -0.58311568	      4.15132007	     -0.42038689	      1.04868520	      0.30866377	     19.19896349	      1.25115045	     -3.21248075	    -29.26333805	     16.35879428	     -6.30951660	      2.44845604	     23.83924519	     -5.22238465	     -6.11032882	    -74.65910849	      5.17919254	      8.34504075	      3.86551832	     -6.54009850	      2.59811786	      1.89743074
      0.69866667	     -4.02170053	     -0.42416666	      4.09380541	     -0.41445123	      1.05016291	      0.30844641	     18.60551790	      1.10499922	     -3.15875023	    -28.79723586	     16.45358146	     -6.18608884	      2.46353473	     24.33015932	     -4.97755317	     -6.37029374	    -74.07423391	      5.51732958	      8.86907994	      3.89101328	     -6.51080098	      2.46287004	      1.98123475
      0.70283333	     -4.02311868	     -0.27186967	      4.02800697	     -0.40851819	      1.05160341	      0.30823030	     18.00999069	      0.96699933	     -3.10022859	    -28.32131791	     16.53536468	     -6.07168554	      2.47957901	     24.80314084	     -4.74564452	     -6.63149490	    -73.42923335	      5.85418503	      9.41821393	      3.92121575	     -6.48480818	      2.33058656	      2.07278345
      0.70700000	     -4.01769343	     -0.11863949	      3.94846889	     -0.40257760	      1.05301707	      0.30803224	     17.40842613	      0.83104971	     -3.03418977	    -27.84336943	     16.62687270	     -5.95791694	      2.50274874	     25.24694130	     -4.52043555	     -6.89881510	    -72.71874732	      6.18270458	      9.97571299	      3.96245083	     -6.46283533	      2.19682124	      2.19886056
      0.71116667	     -3.99967976	      0.03603744	      3.86859435	     -0.39663851	      1.05443961	      0.30782370	     16.78421689	      0.69437290	     -2.95764241	    -27.34176750	     16.68781353	     -5.86172511	      2.52841329	     25.65996777	     -4.29582974	     -7.16045805	    -71.94778404	      6.49590684	     10.51526289	      4.01099814	     -6.45602668	      2.05660418	      2.31926344
      0.71533333	     -4.01183873	      0.20254707	      3.77798272	     -0.39071055	      1.05575807	      0.30761658	     16.20342178	      0.54197009	     -2.87619650	    -26.85665644	     16.71989560	     -5.77629737	      2.54607304	     26.08527964	     -4.05497061	     -7.41604441	    -71.11378904	      6.79158714	     11.03420629	      4.04951064	     -6.42113932	      1.90397102	      2.39707532
      0.71950000	     -4.02023186	      0.37157064	      3.68587448	     -0.38477646	      1.05703900	      0.30741214	     15.61802640	      0.38731482	     -2.78881128	    -26.37034372	     16.76009117	     -5.68785697	      2.56236667	     26.48694498	     -3.81517415	     -7.66561648	    -70.22013018	      7.07598131	     11.53320155	      4.08613021	     -6.39133320	      1.75072703	      2.48547449
      0.72366667	     -4.00699871	      0.51436097	      3.58165898	     -0.37884153	      1.05829725	      0.30722528	     15.00518979	      0.26576118	     -2.68932137	    -25.86435697	     16.82132090	     -5.61221795	      2.59076254	     26.85171227	     -3.61643786	     -7.91312518	    -69.28369567	      7.36024029	     12.01640236	      4.14496856	     -6.38121156	      1.61540806	      2.65973536
      0.72783333	     -4.04142859	      0.67957413	      3.47853697	     -0.37292548	      1.05941910	      0.30701523	     14.45910292	      0.11161637	     -2.59598908	    -25.38716284	     16.82798446	     -5.54467905	      2.60475876	     27.24937445	     -3.37977258	     -8.13923374	    -68.28693766	      7.61365489	     12.43239511	      4.18032319	     -6.31990354	      1.46220402	      2.73301516
      0.73200000	     -4.04470410	      0.83889457	      3.36800500	     -0.36701934	      1.06054630	      0.30681792	     13.87729637	     -0.03315485	     -2.49353026	    -24.89862896	     16.85539984	     -5.48329361	      2.61983441	     27.59461303	     -3.15855681	     -8.36088851	    -67.23656679	      7.86354957	     12.83082085	      4.21782247	     -6.29417460	      1.31381774	      2.84469519
      0.73616667	     -4.05546512	      0.98851815	      3.24965881	     -0.36110148	      1.06158354	      0.30664618	     13.30579467	     -0.16525648	     -2.37981190	    -24.41026533	     16.90737127	     -5.42785402	      2.64605758	     27.93199830	     -2.95651186	     -8.57875202	    -66.14435105	      8.09419883	     13.17036718	      4.27832638	     -6.26075553	      1.16111461	      3.04590588
      0.74033333	     -4.10431826	      1.13857750	      3.14384506	     -0.35521605	      1.06249513	      0.30641670	     12.78615453	     -0.30951151	     -2.28818256	    -23.93953036	     16.89930274	     -5.37234341	      2.65600991	     28.30013179	     -2.73309870	     -8.75019327	    -65.00348305	      8.30791813	     13.43547767	      4.30840756	     -6.18338481	      1.01914340	      3.11687922
      0.74450000	     -4.11901519	      1.27607575	      3.02344797	     -0.34933974	      1.06338998	      0.30623734	     12.22897900	     -0.43142723	     -2.16765622	    -23.45936012	     16.94441970	     -5.33484002	      2.67819791	     28.61359628	     -2.54121452	     -8.92571058	    -63.82053402	      8.50532550	     13.66642618	      4.36885674	     -6.15270524	      0.87846772	      3.32408690
      0.74866667	     -4.17881829	      1.42672501	      2.91194606	     -0.34346544	      1.06415258	      0.30601983	     11.73256809	     -0.57982033	     -2.07942638	    -23.00345935	     16.94175031	     -5.28845993	      2.68579023	     28.95693719	     -2.32039074	     -9.06929652	    -62.58235262	      8.68685319	     13.82294625	      4.39661777	     -6.05865033	      0.73610633	      3.39685408
      0.75283333	     -4.23062976	      1.55921560	      2.79783749	     -0.33761770	      1.06483403	      0.30581442	     11.23233221	     -0.70667965	     -1.98144289	    -22.55116398	     16.96702221	     -5.25101470	      2.69350540	     29.28109042	     -2.12366570	     -9.19197094	    -61.31048252	      8.85041280	     13.92676562	      4.42658944	     -5.98129525	      0.60939455	      3.52241188
      0.75700000	     -4.28566265	      1.69185177	      2.68607878	     -0.33178526	      1.06545084	      0.30560252	     10.73888538	     -0.83681448	     -1.89082730	    -22.10097561	     16.99070294	     -5.20810555	      2.69956816	     29.59071383	     -1.92318960	     -9.29087869	    -59.99044764	      8.99271411	     13.96202832	      4.45548461	     -5.90286346	      0.47860346	      3.65960685
      0.76116667	     -4.35006733	      1.81748517	      2.57415434	     -0.32595941	      1.06597783	      0.30538764	     10.26106371	     -0.96244602	     -1.80537118	    -21.65913311	     17.01961635	     -5.16690742	      2.70452079	     29.89407456	     -1.72881901	     -9.36323715	    -58.62781885	      9.11385823	     13.93364827	      4.48502453	     -5.81510599	      0.35098422	      3.80685910
      0.76533333	     -4.41561619	      1.92441429	      2.46505698	     -0.32015626	      1.06640335	      0.30516380	      9.78984762	     -1.07077489	     -1.73438865	    -21.22225692	     17.07416619	     -5.12144709	      2.70999646	     30.18840758	     -1.55415018	     -9.40975386	    -57.23514642	      9.21073138	     13.83001931	      4.52701525	     -5.72138395	      0.24358872	      3.99873958
      0.76950000	     -4.51001582	      2.03413926	      2.36320012	     -0.31437630	      1.06671960	      0.30492939	      9.35724203	     -1.18670722	     -1.67007807	    -20.79847887	     17.08979443	     -5.06883767	      2.71108082	     30.49494031	     -1.36638672	     -9.41379754	    -55.79200152	      9.31394222	     13.71214772	      4.55424312	     -5.61150405	      0.13489008	      4.11035563
      0.77366667	     -4.59127456	      2.13688158	      2.26057156	     -0.30861199	      1.06697882	      0.30469287	      8.91488111	     -1.29735091	     -1.61751900	    -20.38015248	     17.13378498	     -5.01307891	      2.71094820	     30.76938061	     -1.18649784	     -9.39442471	    -54.30698627	      9.37921898	     13.51054126	      4.58280272	     -5.51196265	      0.03287918	      4.24749613
